<mxfile>
    <diagram id="l1c7Nxvu9nQXHTme1ghr" name="Page-1">
        <mxGraphModel dx="608" dy="823" grid="1" gridSize="10" guides="1" tooltips="1" connect="1" arrows="1" fold="1" page="1" pageScale="1" pageWidth="850" pageHeight="1100" background="#FFFFFF" math="0" shadow="0">
            <root>
                <mxCell id="0"/>
                <mxCell id="1" parent="0"/>
                <mxCell id="62" style="edgeStyle=orthogonalEdgeStyle;rounded=0;orthogonalLoop=1;jettySize=auto;html=1;exitX=0.25;exitY=1;exitDx=0;exitDy=0;entryX=0;entryY=0.5;entryDx=0;entryDy=0;strokeColor=#B85450;" parent="1" source="63" target="66" edge="1">
                    <mxGeometry relative="1" as="geometry"/>
                </mxCell>
                <mxCell id="63" value="BAB III" style="rounded=1;whiteSpace=wrap;html=1;strokeColor=#b85450;strokeWidth=3;fillColor=none;" parent="1" vertex="1">
                    <mxGeometry x="80" y="400" width="120" height="20" as="geometry"/>
                </mxCell>
                <mxCell id="64" style="edgeStyle=orthogonalEdgeStyle;rounded=0;orthogonalLoop=1;jettySize=auto;html=1;exitX=0.25;exitY=1;exitDx=0;exitDy=0;entryX=0;entryY=0.5;entryDx=0;entryDy=0;strokeColor=#B85450;" parent="1" source="66" target="74" edge="1">
                    <mxGeometry relative="1" as="geometry"/>
                </mxCell>
                <mxCell id="65" style="edgeStyle=orthogonalEdgeStyle;rounded=0;orthogonalLoop=1;jettySize=auto;html=1;exitX=0.25;exitY=1;exitDx=0;exitDy=0;entryX=0;entryY=0.5;entryDx=0;entryDy=0;strokeColor=#B85450;" parent="1" source="66" target="82" edge="1">
                    <mxGeometry relative="1" as="geometry"/>
                </mxCell>
                <mxCell id="66" value="Bagian Kesatu" style="rounded=1;whiteSpace=wrap;html=1;strokeColor=#b85450;strokeWidth=3;fillColor=none;" parent="1" vertex="1">
                    <mxGeometry x="130" y="460" width="120" height="20" as="geometry"/>
                </mxCell>
                <mxCell id="67" value="mengandung" style="text;html=1;align=center;verticalAlign=middle;resizable=0;points=[];autosize=1;fillColor=#ffffff;fontColor=#B85450;fontSize=13;" parent="1" vertex="1">
                    <mxGeometry x="80" y="430" width="90" height="20" as="geometry"/>
                </mxCell>
                <mxCell id="68" style="edgeStyle=orthogonalEdgeStyle;rounded=0;orthogonalLoop=1;jettySize=auto;html=1;exitX=0.25;exitY=1;exitDx=0;exitDy=0;entryX=0;entryY=0.5;entryDx=0;entryDy=0;strokeColor=#B85450;" parent="1" source="74" target="76" edge="1">
                    <mxGeometry relative="1" as="geometry"/>
                </mxCell>
                <mxCell id="69" style="edgeStyle=orthogonalEdgeStyle;rounded=0;orthogonalLoop=1;jettySize=auto;html=1;exitX=0.25;exitY=1;exitDx=0;exitDy=0;entryX=0;entryY=0.5;entryDx=0;entryDy=0;strokeColor=#B85450;" parent="1" source="74" target="78" edge="1">
                    <mxGeometry relative="1" as="geometry"/>
                </mxCell>
                <mxCell id="70" style="edgeStyle=orthogonalEdgeStyle;rounded=0;orthogonalLoop=1;jettySize=auto;html=1;exitX=0.25;exitY=1;exitDx=0;exitDy=0;entryX=0;entryY=0.5;entryDx=0;entryDy=0;strokeColor=#B85450;" parent="1" source="74" target="79" edge="1">
                    <mxGeometry relative="1" as="geometry"/>
                </mxCell>
                <mxCell id="71" style="edgeStyle=orthogonalEdgeStyle;rounded=0;orthogonalLoop=1;jettySize=auto;html=1;exitX=0.25;exitY=1;exitDx=0;exitDy=0;entryX=0;entryY=0.25;entryDx=0;entryDy=0;strokeColor=#B85450;" parent="1" source="74" target="80" edge="1">
                    <mxGeometry relative="1" as="geometry"/>
                </mxCell>
                <mxCell id="72" style="edgeStyle=orthogonalEdgeStyle;rounded=0;orthogonalLoop=1;jettySize=auto;html=1;entryX=1;entryY=0.5;entryDx=0;entryDy=0;fillColor=#dae8fc;strokeColor=#6c8ebf;strokeWidth=3;" parent="1" source="74" target="86" edge="1">
                    <mxGeometry relative="1" as="geometry">
                        <Array as="points">
                            <mxPoint x="415" y="710"/>
                            <mxPoint x="415" y="650"/>
                        </Array>
                    </mxGeometry>
                </mxCell>
                <mxCell id="73" value="&lt;font color=&quot;#6c8ebf&quot; style=&quot;font-size: 12px;&quot;&gt;menyebut&lt;/font&gt;" style="edgeLabel;html=1;align=center;verticalAlign=middle;resizable=0;points=[];fontSize=12;fontStyle=0" parent="72" vertex="1" connectable="0">
                    <mxGeometry x="-0.1568" y="2" relative="1" as="geometry">
                        <mxPoint x="-8" y="2" as="offset"/>
                    </mxGeometry>
                </mxCell>
                <mxCell id="74" value="Pasal 6" style="rounded=1;whiteSpace=wrap;html=1;strokeColor=#b85450;strokeWidth=3;fillColor=none;" parent="1" vertex="1">
                    <mxGeometry x="190" y="700" width="120" height="20" as="geometry"/>
                </mxCell>
                <mxCell id="75" value="mengandung" style="text;html=1;align=center;verticalAlign=middle;resizable=0;points=[];autosize=1;fillColor=#ffffff;fontColor=#B85450;fontSize=13;" parent="1" vertex="1">
                    <mxGeometry x="130" y="490" width="90" height="20" as="geometry"/>
                </mxCell>
                <mxCell id="76" value="huruf a" style="rounded=1;whiteSpace=wrap;html=1;strokeColor=#b85450;strokeWidth=3;fillColor=none;" parent="1" vertex="1">
                    <mxGeometry x="240" y="760" width="50" height="20" as="geometry"/>
                </mxCell>
                <mxCell id="77" value="mengandung" style="text;html=1;align=center;verticalAlign=middle;resizable=0;points=[];autosize=1;fillColor=#ffffff;fontColor=#B85450;fontSize=13;" parent="1" vertex="1">
                    <mxGeometry x="190" y="730" width="90" height="20" as="geometry"/>
                </mxCell>
                <mxCell id="78" value="huruf b" style="rounded=1;whiteSpace=wrap;html=1;strokeColor=#b85450;strokeWidth=3;fillColor=none;" parent="1" vertex="1">
                    <mxGeometry x="240" y="780" width="50" height="20" as="geometry"/>
                </mxCell>
                <mxCell id="79" value="huruf c" style="rounded=1;whiteSpace=wrap;html=1;strokeColor=#b85450;strokeWidth=3;fillColor=none;" parent="1" vertex="1">
                    <mxGeometry x="240" y="800" width="50" height="20" as="geometry"/>
                </mxCell>
                <mxCell id="80" value="huruf d" style="rounded=1;whiteSpace=wrap;html=1;strokeColor=#b85450;strokeWidth=3;fillColor=none;" parent="1" vertex="1">
                    <mxGeometry x="240" y="820" width="50" height="20" as="geometry"/>
                </mxCell>
                <mxCell id="81" style="edgeStyle=orthogonalEdgeStyle;rounded=0;orthogonalLoop=1;jettySize=auto;html=1;exitX=0.25;exitY=1;exitDx=0;exitDy=0;entryX=0;entryY=0.5;entryDx=0;entryDy=0;" parent="1" source="82" target="84" edge="1">
                    <mxGeometry relative="1" as="geometry"/>
                </mxCell>
                <mxCell id="82" value="Pasal 5" style="rounded=1;whiteSpace=wrap;html=1;strokeWidth=3;" parent="1" vertex="1">
                    <mxGeometry x="190" y="520" width="120" height="20" as="geometry"/>
                </mxCell>
                <mxCell id="83" style="edgeStyle=orthogonalEdgeStyle;rounded=0;orthogonalLoop=1;jettySize=auto;html=1;exitX=0.25;exitY=1;exitDx=0;exitDy=0;entryX=0;entryY=0.5;entryDx=0;entryDy=0;" parent="1" source="84" target="86" edge="1">
                    <mxGeometry relative="1" as="geometry"/>
                </mxCell>
                <mxCell id="84" value="ayat (1)" style="rounded=1;whiteSpace=wrap;html=1;strokeWidth=3;" parent="1" vertex="1">
                    <mxGeometry x="240" y="585" width="105" height="20" as="geometry"/>
                </mxCell>
                <mxCell id="85" value="mengandung" style="text;html=1;align=center;verticalAlign=middle;resizable=0;points=[];autosize=1;fillColor=#ffffff;" parent="1" vertex="1">
                    <mxGeometry x="190" y="551" width="90" height="20" as="geometry"/>
                </mxCell>
                <mxCell id="86" value="huruf a" style="rounded=1;whiteSpace=wrap;html=1;strokeWidth=3;" parent="1" vertex="1">
                    <mxGeometry x="290" y="640" width="105" height="20" as="geometry"/>
                </mxCell>
                <mxCell id="87" value="mengandung" style="text;html=1;align=center;verticalAlign=middle;resizable=0;points=[];autosize=1;fillColor=#ffffff;" parent="1" vertex="1">
                    <mxGeometry x="240" y="615" width="90" height="20" as="geometry"/>
                </mxCell>
                <mxCell id="88" value="" style="endArrow=none;html=1;strokeColor=#B85450;strokeWidth=10;fontSize=12;fontColor=#000000;" parent="1" edge="1">
                    <mxGeometry width="50" height="50" relative="1" as="geometry">
                        <mxPoint x="330" y="400.30999999999995" as="sourcePoint"/>
                        <mxPoint x="379.5" y="400.30999999999995" as="targetPoint"/>
                    </mxGeometry>
                </mxCell>
                <mxCell id="89" value="Informasi dari Data Terstruktur" style="text;html=1;align=left;verticalAlign=middle;resizable=0;points=[];autosize=1;fontSize=13;fontColor=#B85450;" parent="1" vertex="1">
                    <mxGeometry x="390" y="390" width="190" height="20" as="geometry"/>
                </mxCell>
                <mxCell id="90" value="" style="endArrow=none;html=1;strokeWidth=10;fontSize=12;fontColor=#000000;strokeColor=#6C8EBF;" parent="1" edge="1">
                    <mxGeometry width="50" height="50" relative="1" as="geometry">
                        <mxPoint x="330" y="430.3099999999997" as="sourcePoint"/>
                        <mxPoint x="379.5" y="430.3099999999997" as="targetPoint"/>
                    </mxGeometry>
                </mxCell>
                <mxCell id="91" value="Informasi dari Data Tidak Terstruktur" style="text;html=1;align=left;verticalAlign=middle;resizable=0;points=[];autosize=1;fontSize=13;fontColor=#6C8EBF;" parent="1" vertex="1">
                    <mxGeometry x="390" y="420" width="220" height="20" as="geometry"/>
                </mxCell>
            </root>
        </mxGraphModel>
    </diagram>
</mxfile>